<?xml version="1.0" encoding="UTF-8"?>
<svg id="Layer_2" data-name="Layer 2" xmlns="http://www.w3.org/2000/svg" viewBox="0 0 31.38 25.82">
  <defs>
    <style>
      .cls-1 {
        fill: #020202;
      }

      .cls-1, .cls-2, .cls-3, .cls-4 {
        stroke-width: 0px;
      }

      .cls-2 {
        fill: #353434;
      }

      .cls-3 {
        fill: #9a9999;
      }

      .cls-4 {
        fill: #64605d;
      }
    </style>
  </defs>
  <g id="Layer_1-2" data-name="Layer 1">
    <g>
      <path class="cls-2" d="M17.54.16c1.18.13,2.81.39,4.73.92,1.2.56,2.12,1.19,2.8,1.73.55.44,1.38,1.13,2.18,2.27.41.59,1.06,1.64,1.45,3.02.14.5,1.1,4.12-.93,7.58-.96,1.63-2.13,2.59-3.03,3.15-9.03,5.64-16.38,2.38-22.41-4.19-.77-.84-1.67-2.38-.32-3.75.15.08.4.23.62.51.28.34.37.69.41.87-.4-.76-1.71-3.45-.64-5.4.43-.79,1.41-1.72,2.05-2.33.42-.41.81-.77,1.4-1.2.6-.44.91-.56,1.66-1.11.58-.42.78-.63,1.07-.85.35-.27,1.12-.78,3.04-1.13.87-.16,2.83-.44,5.93-.1ZM15.7,13.13c1.01-.54,3.5.45,3.52-2.29.02-2.3-1.74-3.02-3.62-3.02-1.83,0-3.36.92-3.29,3,.05,1.72,1.1,2.68,3.39,2.31Z"/>
      <path class="cls-1" d="M2,10.9c-.25.33-.49.78-.55,1.33-.15,1.25.65,2.57,2.02,3.38.88.91,6.07,6.15,13.53,5.62,1.46-.1,8.3-.6,10.85-5.91,1.49-3.1.75-6.24.4-7.45-3.35-7.82,6.26,2.97,2.05,9.77C23.58,33.19-6.18,24.85,1.15,7.17c.5-.66.86-.94,1.08-.86.43.16.35,1.69-.24,4.59Z"/>
      <path class="cls-4" d="M18.55.2c-3.8.46-7.59.95-11.2,2.28C9.4.13,12.18.08,14.97.09c1.19,0,2.39.08,3.58.12Z"/>
      <path class="cls-3" d="M18.65,12.96c-1.54,1.18-3.46,1.46-4.89.68-.22-.12-1.47-.8-1.8-2.27-.36-1.64.74-2.88.86-3.01,1.09-1.19,2.89-1.42,4.26-.81,1.42.63,1.91,1.96,1.97,2.14.59,1.67-.28,3.09-.4,3.27Z"/>
      <path class="cls-4" d="M2.8,6.29c.18-.26.36-.52.54-.78.53-.48,1.05-.96,1.58-1.44.5.32.67.77.31,1.24-1.54,1.98-2.12,4.29-2.19,6.96-.47-.63-.75-1-1.03-1.38-.26-1.63.41-3.09.8-4.6Z"/>
    </g>
  </g>
</svg>