<?xml version="1.0" encoding="UTF-8"?>
<svg id="Layer_2" data-name="Layer 2" xmlns="http://www.w3.org/2000/svg" viewBox="0 0 130.57 88.43">
  <defs>
    <style>
      .cls-1 {
        fill: #efefef;
        stroke-width: 0px;
      }
    </style>
  </defs>
  <g id="Layer_1-2" data-name="Layer 1">
    <g>
      <path class="cls-1" d="M1.66,1.68C2.76.56,4.29,0,6.25,0h19.41v5.99h-12.49c-.22,0-.39.08-.5.23-.11.15-.17.33-.17.52v18.86h.67V6.66h12.49v24.77H0V6.16c0-1.87.55-3.37,1.66-4.49Z"/>
      <path class="cls-1" d="M26.32,0h25.44v18.23h-12.28V5.78h-.67v13.12h12.95v5.87h-12.95v.67h12.95v5.99h-25.44V0Z"/>
      <path class="cls-1" d="M52.44,0h25.65v31.44h-12.49V5.78h-.67v25.65h-12.49V0Z"/>
      <path class="cls-1" d="M78.76,0h25.65v17.19c0,.95-.19,1.82-.57,2.62s-.92,1.46-1.61,1.99h2.22v9.64h-12.49v-6.29h-.71v6.29h-12.49V0ZM91.84,19.13c.06-.13.08-.26.08-.4V5.78h-.67v13.54h.38c.08,0,.15-.06.21-.19Z"/>
      <path class="cls-1" d="M105.12,0h25.44v18.23h-12.28V5.78h-.67v13.12h12.95v5.87h-12.95v.67h12.95v5.99h-25.44V0Z"/>
    </g>
    <g>
      <path class="cls-1" d="M0,33.23h59.47v55.2h-19.65v-45.04h-1.18v45.04h-17.88v-45.04h-1.18v45.04H0v-55.2Z"/>
      <path class="cls-1" d="M60.65,33.23h23.7v55.2h-23.7v-55.2Z"/>
      <path class="cls-1" d="M86.52,67.63c.66-1.4,1.61-2.56,2.83-3.5h-3.83v-30.91h21.93v26.57h.66c.15,0,.27-.11.37-.33.1-.22.15-.45.15-.7v-25.54h21.93v22.82c0,1.67-.34,3.2-1.03,4.6-.69,1.4-1.64,2.56-2.87,3.5h3.9v24.29h-21.93v-18.62h-.66c-.15,0-.27.11-.37.33-.1.22-.15.46-.15.7v17.59h-21.93v-16.19c0-1.67.33-3.2.99-4.6Z"/>
    </g>
  </g>
</svg>