<?xml version="1.0" encoding="UTF-8"?>
<svg id="Layer_2" data-name="Layer 2" xmlns="http://www.w3.org/2000/svg" viewBox="0 0 103.07 83.27">
  <defs>
    <style>
      .cls-1 {
        fill: #3f51b5;
      }

      .cls-1, .cls-2 {
        stroke-width: 0px;
      }

      .cls-2 {
        fill: #ff4081;
      }
    </style>
  </defs>
  <g id="Layer_1-2" data-name="Layer 1">
    <path class="cls-2" d="M49.75,78.5c-.57,0-1.29-.32-1.29-1.37-.08-11.71.4-36.57.08-43.35-.08-1.21.16-1.7,1.05-1.78,1.29-.16,7.99-.08,9.85.08.65.08.97.32.97,1.21,0,5.49-.16,32.21-.16,43.99,0,.97-.48,1.21-.97,1.21h-9.53Z"/>
    <path class="cls-1" d="M27.1,22.95l.05,5.84c0,.26.1.51.51.51l11.22-.2c.51,0,.72.15.77.72.05.51.05,2.36,0,2.87-.05.31-.21.67-.61.67-3.07.15-12.24.26-15.11.26-.56,0-.92-.2-.97-.77-.2-3.79,0-26.69-.15-29.51,0-.36.36-.77.87-.77,1.64,0,12.14-.21,15.22,0,.56.05.82.36.82.82l-.05,5.64c0,.46-.21.77-.67.82-2.36.15-7.53.05-8.61.15-.1,1.59-.15,5.02-.1,6.92,0,.26.15.46.46.46,2.25,0,3.33.05,5.89,0,.61,0,.92.26.92.77v3.89c0,.77-.26.92-1.02.92h-9.43Z"/>
    <path class="cls-1" d="M56.87,36.37c-.46,0-.87-.15-1.02-.51-1.23-2.97-5.23-12.6-7.63-17.62-.26-.51-.67-.46-.67.05,0,5.53.26,12.55.41,14.75,0,.36-.2.56-.56.61-.92.1-4.1.15-4.92.05-.41-.05-.61-.31-.61-.72,0-4.82-.2-18.75-.15-26.08,0-.31.15-.61.56-.67.67-.1,3.69-.15,4.61-.15.46,0,.77.2.97.67,1.54,3.43,3.23,7.63,5.84,13.12.1.2.51.26.51-.1,0-6.61-.31-14.75-.31-18.9,0-.51.15-.77.67-.82,1.08-.05,5.43-.1,6.51.05.41.05.67.2.67.72-.1,7.48,0,25.92.05,34.33,0,.31-.26.56-.62.67-.82.26-3.59.56-4.3.56Z"/>
    <path class="cls-1" d="M90.47,23.11l.05,5.84c0,.26.1.51.51.51l11.22-.2c.51,0,.72.15.77.72.05.51.05,2.36,0,2.87-.05.31-.2.67-.62.67-3.07.15-12.24.26-15.11.26-.56,0-.92-.2-.97-.77-.2-3.79,0-26.69-.15-29.51,0-.36.36-.77.87-.77,1.64,0,12.14-.21,15.22,0,.56.05.82.36.82.82l-.05,5.64c0,.46-.2.77-.67.82-2.36.15-7.53.05-8.61.15-.1,1.59-.15,5.02-.1,6.92,0,.26.15.46.46.46,2.25,0,3.33.05,5.89,0,.61,0,.92.26.92.77v3.89c0,.77-.26.92-1.02.92h-9.43Z"/>
    <path class="cls-2" d="M31.68,27.08c.08-.4.4-.73,1.05-.81.89-.08,7.59-.08,8.56,0,.97.08,1.21.57,1.21,1.37.48,13.16,2.34,40.04,2.74,54,0,.65-.24,1.05-.81,1.13-1.53.24-5.65.48-6.62.48-.81,0-1.13-.32-1.13-.97-.16-5.65-1.29-24.78-1.53-33.99,0-.81-.65-.81-.81-.16-2.18,7.75-4.12,21.55-5,23.89-.24.57-.48.97-1.21,1.05-.48.08-9.85.08-10.25.08-.81,0-1.21-.32-1.37-.97-1.29-4.6-2.42-14.37-4.76-23.25-.24-.89-.73-.48-.81.08-.57,7.1-1.45,24.54-1.45,25.27s-.32.89-.97.97c-.65.08-4.92.08-5.17.08-.57,0-.89-.24-.89-.73-.16-3.63,2.1-38.59,2.5-48.11,0-.57.48-1.13,1.13-1.21,2.75-.24,8.96-.24,11.79,0,.89.08,1.13.48,1.29.97,1.21,3.47,4.6,21.15,6.3,31.16,2.26-10.98,5-25.99,6.22-30.35Z"/>
    <path class="cls-2" d="M99.16,76.16c.24.4.24.73-.08.97-.65.48-3.87,2.5-4.6,2.82-.48.24-.81.32-1.21-.24-1.61-2.58-6.38-11.14-10.57-18.32-4.36,7.67-10.01,18.65-11.54,21.23-.32.56-.65.48-1.13.32-.81-.32-5.65-3.07-6.3-3.55-.32-.24-.4-.56-.16-.97,1.94-3.63,7.75-13.64,12.35-21.88l-11.38-22.93c-.4-.81-.32-1.29.4-1.37,1.29-.08,10.41-.16,11.3-.08,1.21.08,1.69.4,2.18,1.37l5.57,12.59c4.04-7.99,9.77-20.1,11.22-23.01.32-.57.65-.48,1.13-.32.81.24,5.73,2.66,6.38,3.07.32.24.4.57.24.97-1.94,4.04-10.17,20.91-15.02,30.11l11.22,19.21Z"/>
    <path class="cls-1" d="M70.08,32.79c0,.61-.36.72-.77.77-.67.05-3.79.05-4.41,0-.56-.05-.72-.26-.72-.72.15-3.38.26-26.44.26-29.46,0-.51.2-.82.56-.87,1.74-.26,4.3-.36,5.63-.36,8.76,0,13.37,2.61,13.37,9.38,0,3.89-1.95,6.81-4.87,8.04,1.59,1.13,2.72,3.13,3.23,5.53.87,4.05,2.31,8.45,3.43,11.22.15.41.2.97-.26,1.23-1.43.77-4.35,1.79-5.48,2.05-.56.15-.92.05-1.13-.36-1.59-3.28-2.61-8.66-3.59-11.94-1.02-3.38-1.95-4.97-4.46-4.97-.36,0-.61.15-.61.61l-.2,9.84ZM71.46,18.03c3.28,0,4.87-1.59,4.87-4.92,0-3.13-1.64-4.97-5.64-4.97-.36,0-1.18.05-1.38.1-.36.05-.46.15-.51.46-.15,1.28-.2,6.81-.05,9.12.87.1,1.79.2,2.72.2Z"/>
    <path class="cls-1" d="M7.69,18.24c0-.41.26-.72.72-.72,2.15,0,8.5-.05,10.55.1.36.05.51.31.56.61.15.92.31,4.56.31,6.05,0,6.61-2.66,10.45-9.99,10.45-6.4,0-9.84-3.89-9.84-17.16C0,6.15,4.05,2.05,10.35,2.05s10.45,3.23,10.45,11.27c0,.51-.31.77-.77.77-.92.05-5.23,0-5.99,0-.61,0-.82-.31-.82-.77,0-2.97-1.02-5.17-3.84-5.17-3.33,0-4.92,2.05-4.92,9.99,0,9.68,2.51,11.89,5.43,11.89,2.66,0,4.05-1.18,4.1-4.41,0-.36-.26-.56-.56-.56-.05,0-3.69-.05-5.12-.05-.36,0-.61-.2-.61-.67v-6.1Z"/>
    <text/>
  </g>
</svg>