<?xml version="1.0" encoding="UTF-8"?>
<svg id="Layer_2" data-name="Layer 2" xmlns="http://www.w3.org/2000/svg" viewBox="0 0 70.81 76.61">
  <defs>
    <style>
      .cls-1 {
        fill: #353434;
      }

      .cls-1, .cls-2, .cls-3, .cls-4, .cls-5 {
        stroke-width: 0px;
      }

      .cls-2 {
        fill: #121212;
      }

      .cls-3 {
        fill: #9a9999;
      }

      .cls-4 {
        fill: #232323;
      }

      .cls-5 {
        fill: #64605d;
      }
    </style>
  </defs>
  <g id="Layer_1-2" data-name="Layer 1">
    <g>
      <path class="cls-2" d="M70.26,57.42c-.76,3.23-2.14,6.16-4.76,8.27-1.12.9-1.74,2.13-2.72,3.12-1.37,1.38-2.83,2.28-4.74,2.8-3.36.91-6.11,3.24-9.74,3.86-8.9,1.52-17.39,2.08-26.06-1.98-4.98-2.33-9.7-4.64-13.6-8.5-.49-.48-.89-1.06-1.33-1.59,3.34-1.45,4.99-4.59,7.18-7.2.12.84.27,1.65,1.17,2.02.25-.33.47-.48.48-.64.35-6.82,3.2-13.33,2.58-20.28-.05-.61.12-1.17.64-1.58,7.55,6.99,16.56,9.7,26.61,8.42,5.86-.75,11.39-2.76,15.27-7.72.96-1.23,1.93-2.47,2.89-3.7.53,1.42,1,2.73,2.13,4,2.05,2.32.32,5.32.24,8.02-.1,2.97-.53,5.9-1.58,8.77-.54,1.47-1.02,2.38-2.65,2.69-3.02.58-3.47,1.84-1.76,4.52.37.58.84,1.12,1.14,1.74.95,1.98,2.18,1.71,3.51.46,1.29-1.22,2.54-2.48,3.44-4.04.39-.68.65-1.5,1.66-1.46Z"/>
      <path class="cls-3" d="M64.13,32.74c-.96,1.23-1.93,2.47-2.89,3.7-2.33-.05-3.66,1.83-5.38,2.89-8.37,5.12-21.28,5.05-28.77-.32.83-.28,1.85-.14,2.28-1.17,2.23-5.3,6.13-9.54,9.26-14.27,1.17-1.76.78-2.09-.99-2.34-7.07-1-14.13-1.92-21.3-1.66-2.06.08-1.93,1.38-1.78,2.66.47,3.93,2.06,7.44,4.53,10.49.61.75.98,1.2.18,1.94-3.87-3.62-5.83-8.11-5.87-13.38-.02-1.94.35-3.89.55-5.83,0,0-.01.02-.01.02.69-.16.68-.67.61-1.21v.02c.71-.43.85-1.06.6-1.81v.02c.69-.16.73-.65.6-1.22l-.03.03c.3-.2.6-.41.9-.61.1-.2.21-.4.31-.59l.03-.62-.03.03c.41,0,.6-.23.62-.62l-.02.02c.27-.2.54-.39.81-.59,3.35-3.36,7.43-5.57,11.77-7.37.34-.07.67-.14,1.01-.21,4.43-.89,8.88-.94,13.33-.22,2.51.47,4.88,1.34,7.17,2.43-.5,1.71-.59,3.75-1.86,4.96-3.21,3.06-4.43,7.46-7.61,10.57-2.3,2.26-1.97,2.47,1.39,3.13,1.68.33,3.43.16,5.01.58,4.05,1.08,8.31-.2,12.35,1.53,2.17.93,4.75.64,5.1-2.77,1.1,4.21-.16,8.04-1.85,11.81Z"/>
      <path class="cls-5" d="M65.98,20.92c-.34,3.41-2.93,3.7-5.1,2.77-4.04-1.73-8.3-.45-12.35-1.53-1.58-.42-3.33-.25-5.01-.58-3.36-.66-3.69-.87-1.39-3.13,3.18-3.12,4.39-7.52,7.61-10.57,1.27-1.21,1.37-3.25,1.86-4.96,3.92,1.31,6.89,3.89,9.45,7.03.7.72,1.39,1.44,2.09,2.16.95,2.94,3.06,5.5,2.83,8.81Z"/>
      <path class="cls-1" d="M13.95,15.45c-.19,1.94-.56,3.89-.55,5.83.04,5.27,2,9.76,5.87,13.38.03.36.06.72.09,1.08-.52.4-.69.96-.64,1.58.62,6.95-2.23,13.45-2.58,20.28,0,.16-.22.31-.48.64-.9-.37-1.05-1.19-1.17-2.02-.53-1.57-.61-2.99.52-4.46,1.37-1.77-.21-3.94.6-5.97.68-1.69.55-3.7.93-5.53.7-3.44-1.57-7.58-4.9-8.87-1.29-.5-1.74-.17-1.95,1.2-.69,4.49-1.51,8.96-2.27,13.44-.08.49-.26,1.08-.08,1.47,1.62,3.5-1.6,4.15-3.36,5.39-.93.66-2.84,1.1-3.25-1.07C-.88,43.22-.04,34.98,5.17,27.77c.59-.81,2.01-2.01,3.25-2.77.27.96.5,1.92.81,2.86.27.82.41,1.91,1.62,1.79,1.06-.11,1.78-.79,2.19-1.8.29-.72-.17-1.37-.15-2.02.08-3.48-1.3-7.13,1.06-10.37Z"/>
      <path class="cls-5" d="M14.47,15.52c-1.14,6.68-1.31,9.37-1.19,10.47.02.17.12.98-.23,1.86-.09.23-.44,1.1-1.29,1.54-.27.14-.57.23-.9.26-1.21.12-1.35-.96-1.62-1.79-.31-.94-.54-1.91-.81-2.86-.43-1.53.13-2.83.45-3.96,1.13-3.99,1.69-5.98,2.99-8.71,1.41-2.94,2.11-4.41,3.19-5.64,3.46-3.92,8.23-4.94,10.17-5.35,2.16-.46,3.99-.51,5.21-.48-1.48.5-3.1,1.2-4.78,2.19-5.81,3.43-8.9,8.38-10.38,11.28-.27.4-.54.79-.81,1.19Z"/>
      <path class="cls-5" d="M19.37,35.73c-.03-.36-.06-.72-.09-1.08.79-.74.43-1.19-.18-1.94-2.47-3.06-4.07-6.56-4.53-10.49-.15-1.28-.28-2.58,1.78-2.66,7.17-.26,14.23.66,21.3,1.66,1.76.25,2.15.58.99,2.34-3.13,4.73-7.02,8.97-9.26,14.27-.43,1.03-1.45.89-2.28,1.17,7.48,5.37,20.4,5.44,28.77.32,1.72-1.06,3.05-2.94,5.38-2.89-3.88,4.96-9.41,6.97-15.27,7.72-10.05,1.28-19.06-1.43-26.61-8.42Z"/>
      <path class="cls-4" d="M2.14,53.39c4.13-1.97,4.95-3.3,4.89-4.18-.03-.42.23-1.27-.32-2.46-.18-.4,0-.98.08-1.47.76-4.48,1.58-8.95,2.27-13.44.11-.7.28-1.13.6-1.32.46-.27,1.08,0,1.35.12,4.62,2.04,5.85,6.51,5.85,6.51.51,1.86.2,3.9-.43,7.98-.07.46-.47,3.04-1,5.88-.09.46-.21,1.12-.36,2.04-.24,1.52-.39,2.78-.48,3.62-.45,1.19-1.51,3.47-3.86,5.32-1.13.89-2.24,1.43-3.12,1.77"/>
      <path class="cls-4" d="M65.98,20.92c1.79,11.98,3.13,20.72,3.89,24.93.35,1.94.35,3.92.6,5.87.36,2.79.71,4.68-.43,6.04-.11.13-.2.22-.28.28-.23.17-.36.15-.46.27-.18.19-.07.53-.04.71.08.65-.74,1.2-1.4,1.79-1.58,1.39-1.15,1.97-2.34,2.64-.29.16-1.42.8-2.45.38-.46-.19-.96-.48-1.41-1.42-.3-.62-.77-1.15-1.14-1.74-1.71-2.67-1.26-3.94,1.76-4.52.71-.13.99-.43,1.41-.6,1.11-.45,1.76-5.41.45-22.83"/>
    </g>
  </g>
</svg>