<?xml version="1.0" encoding="UTF-8"?>
<svg id="Layer_1" data-name="Layer 1" xmlns="http://www.w3.org/2000/svg" version="1.1" viewBox="0 0 800 800">
  <defs>
    <style>
      .cls-1 {
        fill: #fff;
        stroke-width: 0px;
      }
    </style>
  </defs>
  <g id="Layer_2" data-name="Layer 2">
    <g>
      <path class="cls-1" d="M290,473.3c-23.3,16.7-53.3,26.7-83.3,26.7h-73.3c-20,0-33.3,13.3-33.3,33.3s13.3,33.3,33.3,33.3h73.3c43.3,0,86.7-13.3,123.3-40,13.3-10,16.7-33.3,6.7-46.7-13.3-16.7-33.3-20-46.7-6.7Z"/>
      <path class="cls-1" d="M433.3,356.7c10,0,20-3.3,26.7-10,23.3-30,60-46.7,100-46.7h26.7l-10,10c-13.3,13.3-13.3,33.3,0,46.7,6.7,6.7,16.7,10,23.3,10s16.7-3.3,23.3-10l66.7-66.7c3.3-3.3,6.7-6.7,6.7-10,3.3-6.7,3.3-16.7,0-26.7-3.3-3.3-3.3-6.7-6.7-10l-66.7-66.7c-13.3-13.3-33.3-13.3-46.7,0s-13.3,33.3,0,46.7l10,10h-26.7c-60,0-113.3,26.7-153.3,70-13.3,13.3-10,33.3,3.3,46.7,6.7,6.7,16.7,6.7,23.3,6.7Z"/>
      <path class="cls-1" d="M690,510l-66.7-66.7c-13.3-13.3-33.3-13.3-46.7,0s-13.3,33.3,0,46.7l10,10h-50c-53.3,0-96.7-30-120-76.7l-40-80c-33.3-66.7-103.3-110-180-110h-63.3c-20,0-33.3,13.3-33.3,33.3s13.3,33.3,33.3,33.3h63.3c53.3,0,96.7,30,120,76.7l40,80c33.3,70,103.3,113.3,180,113.3h50l-10,10c-13.3,13.3-13.3,33.3,0,46.7s16.7,10,23.3,10,16.7-3.3,23.3-10l66.7-66.7c13.3-16.7,13.3-36.7,0-50Z"/>
    </g>
  </g>
</svg>